<?xml version="1.0" encoding="utf-8"?>
<!-- Generator: Adobe Illustrator 22.0.1, SVG Export Plug-In . SVG Version: 6.00 Build 0)  -->
<svg version="1.1" id="Layer_1" xmlns="http://www.w3.org/2000/svg" xmlns:xlink="http://www.w3.org/1999/xlink" x="0px" y="0px"
	 viewBox="0 0 368.3 367.9" style="enable-background:new 0 0 368.3 367.9;" xml:space="preserve">
<style type="text/css">
	.st0{fill:#FFFFFF;}
</style>
<path class="st0" d="M367.9,171.5c-4-60.8-38.3-116.5-91.5-147.2c-0.1,0-0.1-0.1-0.2-0.1c-17.4-10.1-36.5-17-56.3-20.7
	C208.1,1.2,196,0,184.1,0C151.9,0.1,119.8,8.2,92,24.3C63.5,40.7,40.6,64.2,24.7,91.7C8.7,119.4,0,150.9,0,183.7
	C0,196,1.3,208.1,3.6,220c10.4,51.2,42.4,96.6,88.4,123.3c27.9,16.1,59.7,24.6,92.2,24.6c32.3,0,64.1-8.5,92-24.6
	c0.1,0,0.1,0,0.2-0.1c56.7-32.8,92-93.9,92-159.4C368.3,179.7,368.2,175.5,367.9,171.5z M114.6,33.8c5.1-2.4,10.2-4.6,15.5-6.4
	c0.1,0,0.2,0,0.3-0.1c34.3-11.9,72.6-11.9,106.9-0.1c0.2,0.1,0.3,0.2,0.6,0.2c5.2,1.8,10.2,3.9,15.2,6.3c0.3,0.1,0.8,0.3,1.3,0.5
	l-30,52h-80.8l-29.9-51.9C114,34.1,114.3,34,114.6,33.8z M97.4,311.6c-0.2-0.1-0.5-0.3-0.7-0.6c-4.4-3-8.6-6.2-12.7-9.7
	c-0.6-0.5-1.2-0.9-1.7-1.4c-4-3.5-7.8-7.3-11.4-11.1c-0.7-0.8-1.4-1.5-2.1-2.2c-3.6-3.9-6.9-7.9-10-12.2c-0.6-0.7-1-1.4-1.5-2.1
	c-6.4-8.9-12-18.4-16.5-28.4c-0.3-0.8-0.7-1.6-1-2.3c-2.1-4.8-3.9-9.8-5.4-14.7c-0.3-1-0.7-2-0.9-3c-1.5-5.1-2.9-10.1-3.8-15.4
	c-0.2-0.7-0.2-1.4-0.5-2.1c-0.9-5.3-1.6-10.6-2.1-16v-0.8h59.9l19.1,33.2l21.3,36.8L97.4,311.6z M144.2,247.3l-21-36.3l-18.9-32.7
	l30.3-52.5l9.5-16.6h79.7l39.9,69.1l-39.9,69.1C223.9,247.3,144.2,247.3,144.2,247.3z M347.5,190.6c-0.3,5.4-1,10.7-2.1,16l-0.3,2.1
	c-1,5.3-2.3,10.4-3.8,15.4c-0.3,1-0.6,2-0.9,3c-1.6,4.9-3.3,9.9-5.4,14.6c-0.3,0.8-0.8,1.6-1.2,2.4c-2.2,4.9-4.6,9.9-7.4,14.6
	c0,0,0,0,0,0.1c-2.8,4.7-5.8,9.2-9,13.7c-0.5,0.7-1,1.4-1.5,2.1c-3.1,4.1-6.4,8.3-10,12.1c-0.7,0.8-1.4,1.5-2.1,2.3
	c-3.7,3.8-7.5,7.5-11.5,11.1c-0.5,0.5-1,0.9-1.6,1.4c-4,3.5-8.3,6.7-12.8,9.8c-0.2,0.1-0.5,0.2-0.7,0.5l-29.9-51.9l40.4-70h59.9
	C347.7,190.1,347.7,190.3,347.5,190.6z"/>
</svg>
